<svg xmlns="http://www.w3.org/2000/svg" width="48" height="48" id="t-shirt">
  <path fill="#1f2924" d="M27.18 22.57a5.12 5.12 0 0 1-4.81 9 .68.68 0 0 1 .62-1.2 3.77 3.77 0 1 0-1.56-5.1 3.48 3.48 0 0 0-.32.83 4.45 4.45 0 0 0-.12.73 4 4 0 0 0 .15 1.27.67.67 0 0 1-1.29.37 5.27 5.27 0 0 1-.2-1.72 4.86 4.86 0 0 1 .16-1 4.92 4.92 0 0 1 .44-1.12 5.11 5.11 0 0 1 6.92-2.12Z"></path>
  <path fill="#000000" d="M25.24 20.41a.68.68 0 0 1 1.28.26v8.77a.67.67 0 0 1-.67.67.68.68 0 0 1-.68-.63v-5.85l-4.09 8.44a.67.67 0 0 1-.86.33.66.66 0 0 1-.32-.86l5.37-11.08Z"></path>
  <path fill="#000000" d="M25.68 27.25a.67.67 0 0 1 0 1.34h-3.19a.67.67 0 0 1 0-1.34h3.22Z"></path>
  <path fill="#1f2924" d="M27.71 10.47a2.39 2.39 0 0 0-.84.19h-.08l-.88.38a4.67 4.67 0 0 1-1.91.49 4.55 4.55 0 0 1-1.82-.45l-.18-.03-.83-.36a2.64 2.64 0 0 0-.92-.22c-.87 0-1.26.67-1.26 1.77a5 5 0 1 0 9.94 0c0-1.1-.39-1.77-1.26-1.77Zm-.11 1.35a2.1 2.1 0 0 1 0 .4 3.63 3.63 0 1 1-7.26 0v-.06a1.58 1.58 0 0 1 0-.34h.05l.25.1.86.37a6 6 0 0 0 2.44.6 5.89 5.89 0 0 0 2.34-.56l1-.44.19-.08Z"></path>
  <path fill="#1f2924" d="M19.76 10.81a.67.67 0 0 1 .1 1.33h-.16l-.7.31-.38.19c-.62.36-1.52.81-2.56 1.36a7 7 0 0 0-1.86 1.38l-.08.09-5.29 5.7a.38.38 0 0 0 0 .5l3.52 3.57a.37.37 0 0 0 .51 0L15 23.08a.67.67 0 0 1 .95 0A.66.66 0 0 1 16 24l-2.16 2.2a1.73 1.73 0 0 1-2.4 0l-3.55-3.58a1.7 1.7 0 0 1-.08-2.33l5.29-5.71a8.55 8.55 0 0 1 2.3-1.75l.75-.38a15.54 15.54 0 0 1 3.61-1.64Zm8.48 0a.67.67 0 0 0-.1 1.33h.16l.7.31.38.19c.63.31 1.48.73 2.52 1.27a7 7 0 0 1 1.86 1.38l.08.09 5.29 5.7a.38.38 0 0 1 0 .5l-3.52 3.57a.37.37 0 0 1-.51 0L33 23.08a.67.67 0 0 0-1 .9l2.13 2.19a1.73 1.73 0 0 0 2.4 0l3.52-3.57a1.7 1.7 0 0 0 .08-2.33l-5.29-5.71a8.55 8.55 0 0 0-2.3-1.75l-.75-.38a15.54 15.54 0 0 0-3.55-1.62Z"></path>
  <path fill="#1f2924" d="M32.93 34.94a2.59 2.59 0 0 1-2.53 2.59H17.66A2.58 2.58 0 0 1 15.07 35V23.43a.67.67 0 0 1 .67-.67.68.68 0 0 1 .67.64v11.54a1.24 1.24 0 0 0 1.2 1.24h12.73A1.24 1.24 0 0 0 31.59 35V23.43a.67.67 0 0 1 1.34 0v11.51Z"></path>
</svg>
