<svg xmlns="http://www.w3.org/2000/svg" enable-background="new 0 0 100 100" viewBox="0 0 100 100" id="blazers">
  <path d="M79.06,20.15l-12.5-5l-5.85-5.85c-0.02-0.02-0.04-0.02-0.05-0.04c-0.05-0.04-0.1-0.07-0.15-0.1
	c-0.04-0.03-0.08-0.06-0.12-0.08c-0.02-0.01-0.05-0.01-0.07-0.02c-0.02-0.01-0.03-0.02-0.05-0.03c-0.04-0.01-0.08,0-0.12-0.01
	C60.09,9.02,60.05,9,60,9H40c-0.14,0-0.28,0.04-0.41,0.1c-0.05,0.02-0.08,0.05-0.12,0.08c-0.06,0.04-0.12,0.06-0.18,0.12l-5.85,5.85
	l-12.5,5C16.12,22.08,13,26.68,13,31.87V82c0,0.55,0.45,1,1,1h13v7c0,0.55,0.45,1,1,1h44c0.55,0,1-0.45,1-1v-7h13c0.55,0,1-0.45,1-1
	V31.87C87,26.68,83.88,22.08,79.06,20.15z M59.29,24.71l5.39,5.39L50.57,48.91l0.39-1.32l9.55-35.66L65,16.41v3.05l-5.55,3.7
	C59.2,23.33,59.03,23.6,59,23.9C58.98,24.2,59.08,24.5,59.29,24.71z M40.55,23.17L35,19.46v-3.05l4.48-4.48l9.48,35.38l-0.34,1.13
	L35.31,30.1l5.4-5.4c0.21-0.21,0.32-0.51,0.29-0.81C40.97,23.6,40.8,23.33,40.55,23.17z M58.7,11L50,43.47L41.3,11H58.7z M29,82V71
	h9c0.55,0,1-0.45,1-1s-0.45-1-1-1h-9V40c0-0.55-0.45-1-1-1s-1,0.45-1,1v41H15V31.87c0-4.37,2.62-8.24,6.68-9.87L33,17.48V20
	c0,0.33,0.17,0.65,0.45,0.83l4.99,3.32l-5.14,5.14c-0.35,0.35-0.39,0.9-0.1,1.29L47.9,50.86l-0.86,2.86c0,0.01,0,0.02,0,0.03
	c-0.01,0.03-0.01,0.05-0.01,0.08C47.02,53.88,47,53.94,47,54v35H29V82z M85,81H73V38c0-0.55-0.45-1-1-1s-1,0.45-1,1v31h-9
	c-0.55,0-1,0.45-1,1s0.45,1,1,1h9v11v7H49V54.33L66.8,30.6c0.3-0.4,0.26-0.96-0.09-1.31l-5.14-5.14l4.99-3.32
	C66.83,20.65,67,20.33,67,20v-2.52l11.32,4.53c4.06,1.62,6.68,5.5,6.68,9.87V81z M53.02,60.01c0,0.55-0.46,1.01-1.01,1.01
	S51,60.56,51,60.01S51.46,59,52.01,59S53.02,59.46,53.02,60.01z M53.02,70.01c0,0.55-0.46,1.01-1.01,1.01S51,70.56,51,70.01
	S51.46,69,52.01,69S53.02,69.46,53.02,70.01z M53.02,80.01c0,0.55-0.46,1.01-1.01,1.01S51,80.56,51,80.01S51.46,79,52.01,79
	S53.02,79.46,53.02,80.01z"></path>
</svg>
