<svg xmlns="http://www.w3.org/2000/svg" enable-background="new 0 0 100 100" viewBox="0 0 100 100" id="sneakers">
  <path d="M78,44.5C78,44.5,78,44.5,78,44.5c-0.01,0-0.01,0-0.01,0c0,0-0.01,0-0.01,0h-7.61L40.71,28.68
	c-0.71-0.38-1.58-0.13-1.99,0.55c-2.5,4.17-7.07,6.75-11.91,6.75c-1.22,0-2.45-0.17-3.66-0.5l-10.75-2.93
	c-0.69-0.19-1.42,0.14-1.74,0.77C9.25,36.14,8.5,39.3,8.5,42.47V62v4.06c0,3,2.44,5.44,5.44,5.44h72.13c3,0,5.44-2.44,5.44-5.44V62
	v-3.98C91.5,50.58,85.45,44.51,78,44.5z M11.5,60.5V47.58c6.8,0.7,12.22,6.12,12.92,12.92H11.5z M12.83,35.78l9.52,2.6
	c1.46,0.4,2.96,0.6,4.45,0.6c5.42,0,10.54-2.66,13.7-7.01L44.32,34l-1.66,3.32c-0.37,0.74-0.07,1.64,0.67,2.01
	c0.22,0.11,0.44,0.16,0.67,0.16c0.55,0,1.08-0.3,1.34-0.83l1.63-3.25l5.25,2.8l-1.56,3.11c-0.37,0.74-0.07,1.64,0.67,2.01
	c0.22,0.11,0.44,0.16,0.67,0.16c0.55,0,1.08-0.3,1.34-0.83l1.52-3.04l5.25,2.8l-1.45,2.9c-0.37,0.74-0.07,1.64,0.67,2.01
	c0.22,0.11,0.44,0.16,0.67,0.16c0.55,0,1.08-0.3,1.34-0.83l1.42-2.83l6.54,3.49c0.22,0.12,0.46,0.18,0.71,0.18h6.5v13H27.42
	c-0.72-8.45-7.47-15.2-15.92-15.92v-2.11C11.5,40.18,11.96,37.89,12.83,35.78z"></path>
</svg>
