<svg xmlns="http://www.w3.org/2000/svg" enable-background="new 0 0 1024 1024" viewBox="0 0 1024 1024" id="gym-gloves">
  <path d="M340.32,913.5c-0.92,0-1.86-0.08-2.82-0.25c-8.91-1.58-13.38-9.97-15.53-14l-44.72-83.89c-1.48-2.77-1.07-6.16,1.01-8.51
			c36.34-40.94,74.08-85.17,101.11-136.04c20.36-38.3,42.92-97.28,34.75-160.71c-0.43-3.34,1.42-6.55,4.52-7.87
			c3.1-1.31,6.69-0.39,8.79,2.24c3.72,4.68,6.83,8.87,9.66,12.9c0.12-1.28,0.23-2.55,0.35-3.81c1.45-15.95,2.83-31.01,2.85-47.16
			c0.01-3.9,3-7.15,6.89-7.46c21.44-1.74,57.66,5.26,70.27,9.35c2.75,0.89,4.74,3.29,5.12,6.15c8.33,63.29,5.54,126.01-8.3,186.42
			c-0.99,4.33-2.05,8.7-3.08,12.93c-4.42,18.23-8.6,35.45-8.72,53.17c-0.19,29.2,10.79,57.37,21.4,84.61
			c1.38,3.55-0.11,7.57-3.48,9.35l-167.73,88.74C349.85,911.16,345.43,913.5,340.32,913.5z M292.93,812.9l42.27,79.29
			c2.12,3.97,3.77,6.08,4.92,6.29c1.21,0.22,4.02-1.27,5.52-2.07l161.83-85.62c-9.93-25.66-20.19-54.27-20-83.92
			c0.12-19.46,4.71-38.35,9.14-56.61c1.02-4.18,2.06-8.51,3.03-12.74c13.09-57.12,16-116.39,8.67-176.25
			c-12.59-3.31-36.36-7.48-53.12-7.59c-0.35,14.21-1.6,27.93-2.82,41.25c-0.74,8.14-1.51,16.56-2.08,25.09
			c-0.21,3.22-2.46,5.94-5.58,6.76c-3.12,0.82-6.42-0.46-8.18-3.16l-1.94-2.98c-1.28-1.97-2.52-3.88-3.77-5.76
			c0.56,56.87-19.68,108.13-38.21,142.98C365.67,728.55,328.79,772.37,292.93,812.9z"></path>
  <path d="M511.14 628.27c-27.37-22.26-53.18-51.54-74.63-84.67l12.59-8.15c20.61 31.83 45.33 59.91 71.5 81.19L511.14 628.27zM284.83 809.29c-27.79-31.78-43.12-49.63-60.72-76.66-2.59-3.98-5.25-8.23-8.07-12.74-8.73-13.96-18.63-29.79-28.53-40.36-7.74-8.27-14.9-15.8-21.83-23.08-24.81-26.08-46.24-48.6-77.3-87.43-2.16-2.7-2.19-6.54-.07-9.28 11.19-14.46 22.17-28.35 32.79-41.79 1.78-2.25 5.09-6.44 10.51-7.54 3.01-.61 5.79-.1 8.15.8l-8.61-9.87c-1.82-2.08-4.86-5.57-5.24-10.55-.56-7.62 5.4-12.69 7.95-14.85l42.08-35.74c2.72-2.31 6.7-2.38 9.5-.17 4 3.16 7.59 6.04 10.88 8.75l-11.15-21.08c-1.66-3.14-.89-7.01 1.84-9.28 18.94-15.72 39.39-28.2 59.14-36.1 3.12-1.25 6.69-.27 8.73 2.39 4.03 5.25 7.99 10.75 11.82 16.08 5.21 7.25 10.5 14.62 15.76 20.94-.38-.95-.77-1.89-1.15-2.85-2.68-6.6-5.45-13.43-7.78-20.82-1.12-3.56.54-7.4 3.91-9.01 10.66-5.12 20.39-10.13 29.8-14.99 9.5-4.9 19.33-9.96 30.17-15.17 3.46-1.66 7.61-.45 9.63 2.82 17.49 28.3 30.48 52.66 43.04 76.22 11.97 22.46 23.28 43.68 37.86 67.25l-12.76 7.89c-14.82-23.98-26.24-45.4-38.33-68.08-11.58-21.73-23.53-44.14-39.02-69.61-8.32 4.09-16.12 8.11-23.71 12.02-7.73 3.98-15.67 8.08-24.2 12.27 1.67 4.64 3.51 9.16 5.3 13.58 3.83 9.45 7.8 19.21 10.18 30.1.6 2.75-.39 5.61-2.57 7.4-2.18 1.79-5.17 2.21-7.76 1.08-14.78-6.44-27.29-23.85-40.54-42.28-2.64-3.67-5.34-7.43-8.06-11.09-15.05 6.64-30.48 16.1-45.15 27.67l28.34 53.56c1.73 3.27.82 7.32-2.16 9.53-2.97 2.21-7.11 1.92-9.74-.68-12.69-12.52-21.17-20.4-36.8-32.92l-37.39 31.75c-1.45 1.23-2.15 1.98-2.49 2.43.39.56 1.07 1.33 1.37 1.68l47.84 54.81c2.5 2.86 2.46 7.14-.08 9.96-2.54 2.82-6.8 3.29-9.89 1.1l-43.09-30.42c-1.2-.85-2.08-1.4-2.64-1.64-.56.53-1.36 1.54-1.71 1.97-9.45 11.95-19.18 24.27-29.08 37 28.69 35.55 49.18 57.08 72.75 81.86 6.95 7.3 14.14 14.86 21.92 23.17 10.9 11.64 21.21 28.12 30.3 42.66 2.78 4.44 5.4 8.64 7.92 12.5 17.08 26.24 31.35 42.84 59.44 74.97L284.83 809.29z"></path>
  <path d="M340.94 748.49c-4.21-1.03-8.48-2.03-12.6-2.99-2.28-.53-4.54-1.06-6.81-1.6l3.46-14.6c2.25.53 4.5 1.06 6.76 1.59 4.17.97 8.47 1.98 12.76 3.03L340.94 748.49zM301.83 738.83c-7.27-2.09-13.7-4.27-19.65-6.66l5.59-13.92c5.48 2.2 11.43 4.22 18.21 6.16L301.83 738.83zM263.29 723.08c-6.97-3.92-12.76-7.86-17.7-12.07l9.72-11.42c4.2 3.57 9.21 6.98 15.32 10.42L263.29 723.08zM231.05 693.71c-2.06-3.76-3.61-7.72-4.58-11.76-.86-3.55-1.29-7.22-1.29-10.92l15-.08c0 2.59.29 5.08.87 7.48.66 2.75 1.72 5.46 3.15 8.06L231.05 693.71zM243.9 654.54l-13.77-5.95c2.68-6.22 6.46-12.51 11.23-18.7l11.88 9.15C249.23 644.25 246.09 649.46 243.9 654.54zM265.96 625.21l-10.29-10.91c5.02-4.73 10.39-9.24 15.98-13.41l8.96 12.03C275.49 616.74 270.56 620.87 265.96 625.21zM296.58 602.35l-7.57-12.95c5.94-3.47 12.17-6.67 18.51-9.5l6.12 13.7C307.8 596.21 302.06 599.16 296.58 602.35zM331.55 586.72l-4.62-14.27c6.58-2.13 13.34-3.92 20.1-5.33l3.07 14.68C343.87 583.1 337.63 584.76 331.55 586.72zM419.46 581.44c-4-.83-8.1-1.51-12.17-2.03l1.9-14.88c4.45.57 8.93 1.32 13.3 2.22L419.46 581.44zM369.06 578.9l-1.46-14.93c6.92-.68 13.92-.98 20.8-.89l-.19 15C381.86 577.99 375.43 578.27 369.06 578.9zM761.58 669.84c-56.26 0-119.27-17.71-179-50.52-2.93-1.61-4.44-4.97-3.7-8.23 6.03-26.6 13.54-59.71 8.35-86.79-5.7-29.79-11.76-39.88-26.42-64.26-1.15-1.92-2.36-3.92-3.61-6.02-19.88-33.23-29.13-63.25-41.93-104.8-6.72-21.8-14.33-46.52-25.06-77.16-1.21-3.45.25-7.28 3.45-9.04 20.59-11.37 40.45-23.7 57.97-34.57 2.59-1.61 5.14-3.19 7.65-4.74 2.89-1.79 6.63-1.41 9.1.93 40.2 38 68.53 72.93 86.61 106.81 11.97 22.42 19.44 41.23 19.74 65.7.32 26.69-8.68 52.25-24.7 70.13-15.58 17.39-34.94 27.26-54.55 28.19 2.41 7.27 4.48 15.56 6.49 26.03 5.4 28.2-1.15 60.45-7.2 87.38 60.44 32.23 123.8 48.43 178.95 45.68.85-.04 1.69-.05 2.53-.06.73-.01 1.41-.02 2.03-.05.75-1.77 1.54-4.97 1.91-6.5.33-1.36.62-2.53.95-3.57l14.31 4.51c-.18.58-.43 1.58-.69 2.64-1.63 6.62-3.85 15.68-11.69 17.39-2.46.53-4.68.56-6.64.59-.65.01-1.3.01-1.97.05C770.21 669.73 765.91 669.84 761.58 669.84zM589.47 480.44c23.34 1.53 40.81-13.62 49.38-23.19 13.54-15.12 21.15-36.96 20.87-59.94-.26-21.52-6.79-37.86-17.97-58.82-16.68-31.25-42.71-63.67-79.5-98.99-.9.56-1.8 1.12-2.71 1.68-16.11 10-34.18 21.21-53.1 31.87 9.75 28.17 16.85 51.24 23.17 71.74 12.96 42.06 21.52 69.84 40.47 101.52 1.25 2.09 2.45 4.08 3.6 5.99C580.3 463.34 585.36 471.75 589.47 480.44z"></path>
  <path d="M818.03,539.72l-12.62-8.1c27.01-42.08,38.41-83.27,51.62-130.97c13.15-47.5,27.98-101.09,61.97-163.3l-47.71-18.15
			c-4.56,7.51-10.88,15.77-17.04,23.82c-3.55,4.64-11.82,15.47-24.03,13.76c-2.29-0.32-4.3-1.68-5.45-3.69
			c-1.15-2-1.32-4.43-0.45-6.57l29.31-72.07c-15.61-8.11-33.45-13.6-52.22-16.05c-4.29,9.82-9.97,20.07-15.92,30.83
			c-1.65,2.99-3.32,6-4.97,9.02c-1.75,3.21-5.57,4.69-9.03,3.5c-3.46-1.19-5.56-4.71-4.95-8.33c3.25-19.46,5.98-37.04,8.59-53.98
			c-17.56-6.7-36.43-10.4-55.22-10.82c-2.2,20.46-9.07,40.29-20.07,57.72c-1.6,2.54-4.57,3.88-7.54,3.4
			c-2.97-0.48-5.36-2.68-6.08-5.6c-3.39-13.7-3.18-28.34,0.52-41.98c-19.53-6.04-39.5-11.15-59.54-15.24
			c-5.37,45.95-13.55,91.97-24.33,136.9l-14.59-3.5c11.27-46.96,19.65-95.13,24.92-143.15c0.23-2.08,1.31-3.97,3-5.21
			c1.68-1.24,3.8-1.73,5.86-1.34c25.77,4.9,51.49,11.46,76.44,19.52c1.95,0.63,3.56,2.04,4.45,3.89c0.35,0.73,0.58,1.5,0.68,2.29
			c0.97-5.15,1.6-10.37,1.88-15.62c0.21-3.92,3.41-7.02,7.34-7.09c25.05-0.5,50.47,4.41,73.53,14.18c3.16,1.34,5.01,4.65,4.49,8.05
			c-0.72,4.67-1.45,9.38-2.18,14.15c0.34-0.81,0.66-1.62,0.97-2.42c1.22-3.14,4.39-5.08,7.72-4.75c25.25,2.47,49.27,10,69.49,21.77
			c3.23,1.88,4.58,5.85,3.17,9.31l-20.55,50.54c4.82-6.5,9.14-12.74,11.67-17.89c1.71-3.47,5.78-5.07,9.4-3.7l61.87,23.54
			c2.04,0.78,3.65,2.41,4.39,4.46c0.74,2.06,0.55,4.33-0.53,6.24c-36.1,63.87-51.35,118.95-64.8,167.54
			C858.52,451.48,846.27,495.73,818.03,539.72z M702.32,142.42c-0.78,2.33-1.43,4.7-1.95,7.1
			C701.1,147.17,701.75,144.81,702.32,142.42z"></path>
  <path d="M790.7 654.24c-.36 0-.73-.01-1.09-.04-43.65-2.81-85.75-9.67-125.11-20.38-3.97-1.08-10.62-2.89-14.6-8.74-3.58-5.25-3.31-11.42-3.15-15.11 1.26-29.01 5.58-57.98 12.83-86.1.69-2.68 1.85-7.16 5.5-10.46 4.69-4.25 10.95-4.27 13.9-4.24 23.87 0 47.21 5.32 69.78 10.46 20.18 4.6 41.06 9.35 61.64 10.02 3.06.1 6.52.12 8.94-.96 1.54-.68 2.33-1.95 2.31-2.32 0 .07.01.14.02.2l1.5.36c.16-.04.32-.1.49-.17l-6.34-13.6c3.86-1.8 8.3-1.5 12.17.83 4.17 2.51 6.9 6.96 7.14 11.62.08 1.5-.08 2.99-.43 4.44l.02 0c-8.94 37.33-19.21 76.97-28.92 111.63C805.19 649.11 798.33 654.24 790.7 654.24zM675.13 524.56c-.39.56-.85 2.37-1.03 3.07-6.99 27.11-11.15 55.03-12.37 83.01-.07 1.7-.21 4.88.56 6.01.86 1.27 4.43 2.24 6.14 2.7 38.39 10.45 79.49 17.14 122.14 19.88 1.07.07 1.98-.58 2.26-1.58 8.12-28.98 16.64-61.47 24.43-93.16-2.56.27-5.05.24-7.36.16-22.02-.72-43.61-5.63-64.48-10.39-22.76-5.19-44.26-10.08-66.45-10.08 0 0-.01 0-.01 0C676.36 524.18 675.45 524.41 675.13 524.56zM798.83 431.6l-.95-14.97c6.01-.38 12.37-2.13 17.8-3.79l4.39 14.34C813.81 429.09 806.39 431.12 798.83 431.6zM775.77 427.37c-6.09-2.79-12.07-6.94-18.3-12.68l10.17-11.03c5.05 4.66 9.76 7.96 14.39 10.08L775.77 427.37zM838.81 421.53l-3.56-14.57c8.9-2.18 16.14-2.64 22.84-1.51l-2.49 14.79c-1.52-.25-3.13-.38-4.81-.38C847.28 419.85 843.48 420.38 838.81 421.53zM743.17 399.6c-2.22-2.53-4.42-5.1-6.63-7.66-2.15-2.49-4.29-4.99-6.46-7.47l11.29-9.88c2.2 2.51 4.37 5.04 6.54 7.56 2.18 2.53 4.35 5.06 6.54 7.56L743.17 399.6zM716.83 370.2c-4.96-4.91-9.62-8.95-14.25-12.34l8.85-12.11c5.25 3.84 10.47 8.35 15.96 13.8L716.83 370.2zM686.68 348.69c-4.24-1.88-10.63-4.72-13.59-11.25-.98-2.17-1.48-4.52-1.48-6.99 0-1.67.23-3.41.68-5.18l14.54 3.7c-.14.57-.22 1.07-.22 1.48 0 .43.08.66.15.8.6 1.32 3.85 2.76 6 3.72L686.68 348.69zM878.86 348.13c-5.92-2.91-11.94-5.78-17.89-8.52l6.29-13.62c6.06 2.8 12.19 5.72 18.22 8.68L878.86 348.13zM842.88 331.52c-6.03-2.61-12.18-5.19-18.28-7.66l5.63-13.9c6.21 2.51 12.47 5.14 18.61 7.79L842.88 331.52zM806.14 316.64c-6.16-2.32-12.43-4.6-18.63-6.77l4.96-14.16c6.31 2.21 12.69 4.53 18.96 6.9L806.14 316.64zM695.12 312.97l-13.09-7.32 9.76-17.46 13.09 7.32L695.12 312.97zM768.73 303.55c-6.25-2.02-12.62-4-18.93-5.87l4.27-14.38c6.42 1.91 12.91 3.92 19.27 5.98L768.73 303.55zM730.73 292.26c-5.23-1.42-10.54-2.8-15.78-4.11-.55-.14-1.12-.21-1.69-.21l.01-15c1.79 0 3.58.22 5.32.66 5.34 1.34 10.74 2.74 16.07 4.19L730.73 292.26z"></path>
  <path d="M695.24,602.76l-14.78-2.58c2.6-14.89,5.23-29.77,7.85-44.65l0.27-1.55l14.77,2.61l-0.27,1.55
			C700.46,573.01,697.84,587.88,695.24,602.76z"></path>
</svg>
